<svg width="1348" height="843" viewBox="0 0 1348 843" fill="none" xmlns="http://www.w3.org/2000/svg">
<path d="M980.194 419.977C965.937 416.374 952.635 408.769 943.044 398.74C932.971 388.205 932.553 386.321 937.26 372.675C944.56 351.509 938.127 333.304 919.156 321.445C900.573 309.829 897.457 305.987 904.593 303.491C906.542 302.81 944.088 301.974 988.031 301.634L1067.93 301.016V318.143C1067.93 345.345 1061.34 365.55 1044.98 388.565C1026.62 414.4 1003.15 425.778 980.194 419.977Z" fill="#EFD9C5"/>
<path d="M562.22 11.3784C555.275 20.0189 556.492 60.3586 556.492 63.6904C556.492 76.5416 545.998 42.8412 525.107 26.6583C498.045 5.71558 477.629 0.95575 465.285 11.9031C438.697 36.1776 433.95 105.193 455.789 149.935C464.81 168.973 467.184 181.825 467.659 214.191C468.134 246.557 470.982 260.836 480.953 285.11C503.268 337.943 498.995 356.506 451.042 416.478C416.858 459.792 398.816 492.158 382.673 537.375C372.849 564.557 373.639 600.577 374.127 629.713C357.074 609.444 363.129 574.987 369.854 549.274C373.178 534.995 383.148 501.201 392.169 475.023C416.383 403.151 421.605 358.41 411.635 308.909C390.27 199.912 302.435 108.525 202.257 89.9623C88.784 69.4955 0 160.882 0 297.486C0 339.371 3.32347 356.982 10.4452 356.982C13.2939 356.982 22.7895 350.794 31.3355 342.703C59.3476 318.428 84.9857 307.957 116.321 307.957C161.9 307.481 194.66 331.755 207.004 374.593C214.126 399.819 214.126 404.103 201.782 468.835C185.639 553.558 189.912 607.818 216.5 664.459C240.714 715.388 294.364 762.509 346.115 777.74L380.157 785.942C364.015 789.75 74.8443 803.442 73.4199 814.866C72.4704 822.481 73.4199 851.004 332.347 830.097C336.145 833.905 430.626 836.284 658.996 838.664C835.614 840.568 985.645 842.472 992.292 842.948C998.939 843.424 1038.35 840.568 1080.13 837.236C1144.94 830.936 1174.76 830.971 1227.31 828.669C1251.05 828.193 1287.61 825.813 1308.02 823.909C1342.21 821.529 1346 820.101 1347.43 811.058C1348.85 801.539 1346 800.587 1314.19 797.731C1295.2 796.303 1262.92 794.399 1242.98 793.923C1222.56 793.447 1205.94 791.067 1205.94 789.163C1205.94 787.259 1208.32 785.356 1210.69 785.356C1213.54 785.356 1215.44 754.417 1215.44 702.061V619.242L1235.85 614.006C1271.94 605.439 1279.53 602.107 1280.48 594.967C1281.43 591.159 1264.34 569.265 1242.5 545.942L1203.57 504.533L1094.84 489.778L986.12 474.547L876.445 489.778C816.148 498.345 764.397 507.389 761.074 510.244C756.326 514.052 754.901 512.148 754.901 501.677C754.901 494.061 753.477 483.59 752.053 478.354C750.154 470.263 754.427 467.407 784.338 457.412C821.371 445.512 865.051 425.998 893.537 408.863L911.579 397.915L926.772 412.67C935.318 420.762 950.511 430.757 960.482 435.041C969.977 438.849 978.048 444.561 978.048 446.94C978.048 455.508 994.666 452.652 1003.21 442.657C1007.48 437.421 1014.13 433.137 1017.46 433.137C1021.25 433.137 1032.65 426.95 1043.09 419.334C1067.31 401.723 1082.03 370.309 1085.82 329.376C1087.25 311.289 1083.19 297.13 1093.32 293.871C1109.05 292.367 1108.33 277.286 1098.84 259.199C1080.86 238.134 1049.67 242.279 1027.35 236.568C1006.94 231.808 1008.68 241.457 1002.51 213.375C995.39 182.437 999.295 167.606 972.233 179.029C959.889 184.265 952.385 189.399 954.284 195.111C955.708 198.919 961.327 202.543 961.897 203.304C964.767 207.133 963.074 202.599 968.297 202.599C973.519 202.599 974.798 204.128 977.543 208.134C978.887 210.096 980.866 218.776 980.641 223.286C980.169 232.75 976.399 236.655 968.802 236.655C914.202 236.655 854.203 254.33 870.346 295.74C876.039 303.865 883.342 301.722 883.092 306.053C882.517 316.032 879.294 317.476 837.038 325.092C777.394 335.694 701.4 344.199 752.545 329.752C760.049 327.633 785.295 319.948 791.46 312.241C827.068 271.783 831.341 221.33 804.753 167.546C778.64 115.665 727.839 76.6351 676.563 68.5436C661.37 66.6398 654.723 61.88 644.277 47.1249C630.034 27.6102 593.951 0.00384521 582.081 0.00384521C578.283 0.00384521 564.198 -0.538879 562.22 11.3784ZM528.906 69.9716C538.876 79.9669 549.796 93.7701 553.594 101.386L560.716 114.237L575.909 106.145C587.304 99.4818 602.022 97.5778 636.206 97.5778C674.663 97.5778 684.634 99.4818 705.049 109.477C749.679 131.848 789.266 188.671 792.884 224.662C796.496 260.593 787.271 274.145 768.195 293.678C745.406 315.096 732.587 320.332 695.554 323.188C651.399 326.996 650.924 336.039 693.18 351.27C720.242 360.79 731.162 361.742 778.64 360.314C809.026 358.886 848.433 354.602 867.899 349.366C899.235 341.751 903.033 341.275 909.68 348.414C916.327 355.078 914.718 357.053 900 368C854 399.5 753.952 440.753 683.684 452.176C626.711 461.219 626.711 461.219 626.711 471.215C626.711 483.59 649.5 487.398 687.957 481.21C705.049 478.354 719.768 477.402 721.192 478.83C722.616 480.258 724.515 495.489 725.465 513.1L727.364 544.99L705.524 566.409C680.361 590.684 677.512 603.059 696.978 607.342C728.788 614.482 727.839 613.53 724.515 636.377C718.343 681.594 694.604 718.244 651.874 747.754C627.185 765.365 623.862 765.365 640.954 748.23C675.138 713.96 670.39 647.8 630.984 602.583C598.698 565.933 556.918 551.178 533.654 568.313C523.683 575.928 522.259 574.977 556.443 585.448C578.758 592.111 616.74 625.429 624.811 645.896C628.61 654.464 631.458 672.075 631.458 685.402C631.458 723.955 611.043 755.369 569.737 780.12C560.716 785.356 556.443 790.115 560.716 790.115C564.514 790.115 570.212 787.735 572.586 785.356C579.232 778.692 646.177 778.216 658.996 784.88C664.693 787.735 671.34 794.399 674.189 799.635C678.937 809.154 677.512 809.154 587.779 809.154C481.902 809.154 471.457 806.298 437.748 769.173C406.412 734.903 397.391 710.628 395.018 653.988C391.694 573.549 414.009 512.148 474.781 435.993C528.431 368.405 536.027 340.323 514.188 287.49C503.268 259.884 500.894 247.509 500.419 211.335C500.419 175.637 498.52 164.69 489.974 150.411C469.558 115.665 464.336 63.308 479.529 45.2211C487.125 36.1776 504.217 44.7451 528.906 69.9716ZM610.093 52.3606L623.862 66.6397H610.568C603.446 66.6397 593.476 69.0196 587.779 71.8754C574.959 78.539 574.01 76.1592 579.707 55.6924C585.405 34.2737 592.052 33.7977 610.093 52.3606ZM226.47 128.992C287.242 151.363 335.195 197.532 366.531 264.168C381.724 296.058 382.199 299.865 382.199 354.602C382.199 409.815 381.249 413.622 360.833 473.595C340.893 530.711 339.468 539.279 339.468 583.068C339.468 622.574 341.367 633.997 349.439 649.704C355.136 660.175 362.258 680.642 365.581 694.921C368.905 709.2 375.552 729.191 380.774 739.186C385.522 748.706 387.896 756.797 385.522 756.797C373.652 756.797 324.75 736.331 306.234 723.479C233.592 673.502 209.378 587.352 232.643 466.455C248.785 384.112 241.189 346.987 201.307 307.957C165.224 273.211 101.603 266.071 52.7007 291.298L28.4868 304.149V286.062C28.4868 240.845 61.2467 168.497 93.057 144.223C128.666 117.569 178.992 111.381 226.47 128.992ZM1058.76 323.664C1058.29 362.218 1030.27 404.579 999.413 412.194C983.746 416.002 958.108 406.959 944.814 392.68C935.318 382.208 934.843 379.828 940.066 366.977C947.188 348.89 938.641 328.9 919.65 319.856C912.529 316.524 906.831 311.289 906.831 307.957C906.831 303.673 927.247 302.245 982.796 302.245H1058.76V323.664ZM943.864 553.082C965.229 555.938 982.321 560.221 981.847 561.649C980.897 563.077 966.179 577.832 948.612 594.491L916.802 624.477L844.16 609.246C804.279 601.155 761.074 592.111 748.254 589.256L725.465 584.496L754.427 554.986L783.863 525L844.16 535.947C877.395 542.134 922.024 549.75 943.864 553.082ZM1213.06 555.462C1227.78 572.121 1238.7 585.448 1236.33 585.448C1234.43 585.448 1195.97 594.491 1150.39 605.439L1067.78 624.953L1037.4 593.539C1020.3 575.928 1006.54 560.697 1006.54 559.269C1006.54 557.842 1012.23 556.89 1019.83 556.89C1026.95 556.414 1065.88 549.274 1106.24 540.707C1146.6 532.139 1181.25 525 1182.68 525.476C1184.1 525.952 1197.87 539.279 1213.06 555.462ZM985.645 624.477C985.17 646.848 986.12 649.704 994.666 649.704C1002.74 649.704 1004.64 645.896 1006.54 626.381L1008.91 602.583L1034.07 630.665L1059.24 658.271L1122.86 641.612L1186.95 625.429V700.633C1186.95 742.042 1186 775.836 1185.05 775.836C1182.2 775.836 1033.12 808.202 1017.46 812.01L1006.54 814.866V745.85C1006.54 615.365 1006.18 564.389 991.939 576.289C986.241 581.048 982.796 693.969 983.746 748.23C984.695 784.404 983.271 813.914 981.372 813.914C977.099 813.914 795.733 781.548 780.065 778.216C769.145 775.836 769.145 774.408 769.145 699.681C769.145 657.795 769.62 623.525 770.569 623.525C771.044 623.525 806.652 631.141 849.858 640.184L928.196 656.843L954.309 628.761C968.553 613.53 981.847 600.679 983.271 600.203C985.17 600.203 986.12 611.15 985.645 624.477ZM740.658 732.047V769.173L712.171 768.697C696.503 768.697 683.684 768.221 683.684 767.269C683.684 766.793 690.806 759.653 699.352 752.038C708.373 744.422 720.717 728.239 726.889 716.34C733.062 704.441 738.759 694.921 739.234 694.921C740.183 694.921 740.658 711.58 740.658 732.047Z" fill="#111111"/>
<path d="M637.5 179.5C618.509 192.351 628.61 233.243 650.924 233.243C664.693 233.243 678.936 218.488 678.936 204.685C678.936 191.357 668.369 175 656.5 175C653.651 175 643.197 175.216 637.5 179.5Z" fill="#111111"/>
<path d="M670.39 504.533C647.601 515.004 589.111 572.2 593.384 578.863C595.283 581.243 622.912 555.938 635.257 544.038C647.601 532.139 699.186 493.916 717.495 493.806C744.557 478.099 701.251 490.73 670.39 504.533Z" fill="#111111"/>
<path d="M81.3465 216.546C63.7796 223.21 2.18555 266.773 29.9984 267.313C44.4089 257.157 61.1741 243.774 75.4175 236.159C99.1392 227.492 159.407 210.277 206.055 237.989C279.671 285.281 303.373 358.154 293.864 465.992C293.12 497.136 285.574 524.377 285.574 555.791C285.574 604.34 290.675 615.854 300.17 641.557C320.885 679.06 432.662 748.217 390.626 721.121C383.979 713.506 313.65 660.096 305.462 636.389C300.735 631.279 293.082 607.579 291.585 565.048C291.235 555.1 295.183 499.557 301.486 474.071C310.41 393.266 304.103 359.642 290.091 316.524C280.559 275.542 243.307 237.794 207.224 219.707C183.01 207.808 168.523 202.927 140.036 203.403C121.52 203.403 91.7917 212.739 81.3465 216.546Z" fill="#111111"/>
<path d="M374 755.5C361.907 751.969 340.092 742.853 324.5 735C272.022 708.569 239.946 665.058 228.5 602C225.995 588.198 225.167 575.164 225.094 549.645C224.999 516.25 225.826 507.764 233.437 464.025C246.397 389.545 241.463 356.91 214 322.5C189.295 291.545 158.664 276.929 116.222 276.77C88.5 278 74.4378 280.877 46.5 295C37.292 299.655 33 304.5 28 305C27.5 305 27.5 285.5 27.5 285.5L28.3994 268L40.5 259.5C63.3153 243.123 69.0911 237.796 82 233.5C110.306 224.081 148.064 220.445 172 225.5C209.763 233.474 244.5 260 273 312.5C294.5 360.5 295.046 381.425 295 424C294.98 443.07 293.5 488.5 289 515C285.542 541.551 283.951 579.952 286.965 599.884C290 614.5 294 628 299 640C303.465 650.121 323.541 670.906 348.5 691L368 706L371.5 717.5C374.214 722.963 376.886 732.162 379.5 738C384.809 749.855 388.318 757.651 386.5 757.5C386 758 379.5 757.106 374 755.5Z" fill="#FFD3AA"/>
<g filter="url(#filter0_d_107_95)">
<path d="M944.411 807.718C806.057 783.245 775.934 777.554 773.235 775.38C770.949 773.538 770.055 770.22 768.939 759.435C767.408 744.624 767.868 624.945 769.463 623.358C770 622.824 806.428 629.936 850.412 639.163L929 655L954.5 629C966.78 612.589 983.341 599.373 984 600C985.342 601.277 988.596 604.866 987.244 719.886C986.713 765.047 985.941 804.751 985.527 808.118C984.968 812.68 984.153 814.209 982.331 814.117C980.986 814.048 963.922 811.169 944.411 807.718Z" fill="#AA5200"/>
<path d="M944.411 807.718C806.057 783.245 775.934 777.554 773.235 775.38C770.949 773.538 770.055 770.22 768.939 759.435C767.408 744.624 767.868 624.945 769.463 623.358C770 622.824 806.428 629.936 850.412 639.163L929 655L954.5 629C966.78 612.589 983.341 599.373 984 600C985.342 601.277 988.596 604.866 987.244 719.886C986.713 765.047 985.941 804.751 985.527 808.118C984.968 812.68 984.153 814.209 982.331 814.117C980.986 814.048 963.922 811.169 944.411 807.718Z" stroke="#111111" stroke-linecap="round" stroke-linejoin="round"/>
</g>
<path d="M861.741 616.776C831.651 610.198 787.642 600.653 763.944 595.564C740.245 590.475 720.853 585.768 720.85 585.104C720.847 584.439 734.166 569.931 750.448 552.862L780.051 521.828L834.012 531.977C863.69 537.559 908.507 545.654 933.604 549.965C958.702 554.276 981.17 558.624 983.534 559.627L987.832 561.451L966.381 583.297C930.715 619.619 920.833 629.046 918.592 628.887C917.415 628.803 891.832 623.353 861.741 616.776Z" fill="#AA5200" stroke="#111111" stroke-linecap="round" stroke-linejoin="round"/>
<path d="M1045.07 607.172C1020.34 581.819 1001.18 560.95 1001.18 559.372C1001.18 558.783 1009.69 557.129 1020.09 555.696C1039.27 553.055 1074.8 546.171 1150.13 530.495L1191.79 521.828L1205.5 535.455C1219.66 549.533 1245.3 578.646 1247.97 583.685C1249.39 586.348 1243.41 587.997 1162 607.392C1113.89 618.857 1072.78 628.509 1070.66 628.842C1067.41 629.351 1063.33 625.893 1045.07 607.172Z" fill="#AA5200" stroke="#111111" stroke-linecap="round" stroke-linejoin="round"/>
<path d="M1005 727C1003.64 642.88 1006.24 603.5 1009.5 603.5C1010.26 603.5 1017.98 613.034 1031.5 628C1048.79 647.141 1056.17 656.229 1058.58 655.476C1065.01 653.469 1184.98 623.043 1186.55 623.022C1188.42 622.996 1188.63 750.924 1186.79 766.293L1185.51 777.013L1163.36 781.458C1151.18 783.903 1110.17 792.731 1072.23 801.074L1002 816.5L1005 727Z" fill="#AA5200" stroke="#111111" stroke-linecap="round" stroke-linejoin="round"/>
<path d="M617.395 759.368C620.732 759.368 630.011 753.961 634.081 749.331C649.247 732.081 664.08 724.09 663.929 696.579C663.776 668.573 654.556 639.715 638.187 616.005C628.798 602.406 609.427 583.606 594.078 573.195C593.727 572.957 595.509 571.162 598.036 569.205C600.564 567.248 609.659 559.25 618.247 551.432C646.611 525.611 665.898 506.197 686.5 496C696.611 490.996 722 481 729.682 481.844C730.215 482.375 731.449 495.051 732.425 510.013L734.199 537.217L713.377 558.518C686.505 586.007 681.08 596.234 689.322 603.87C691.46 605.851 699.791 608.958 710.154 611.64C734.352 617.903 734.566 618.236 730.318 643.157C721.441 695.244 696.352 731.834 645.176 767.331C631.93 776.518 613.356 764.191 617.395 759.368Z" fill="#FFD3AA" stroke="#111111" stroke-linecap="round" stroke-linejoin="round"/>
<path d="M347.095 683.857C314.747 656.134 301.544 642.708 295.847 618.254C287.672 583.157 288.747 546.127 300 475.225C300.621 471.312 302.542 454.428 303.5 438.355C305.371 406.947 305.91 380.424 301.508 358.107C297.168 336.102 286.854 303.226 280.307 290.529C268.872 268.352 249.395 246.723 226.786 231.092C215.767 223.474 189.486 210.678 178.643 207.651C165.618 204.015 136.568 203.275 121.327 206.192C92.6032 211.689 72.8004 220.368 50.261 237.337C43.6272 242.332 33 251.131 33 249.856C33 245.737 41.649 214.935 50.261 196.856C72.5283 150.108 102.501 130.32 143.846 120.5C160.002 116.663 189.789 119.97 206.35 124.145C262.367 138.267 317.687 176.417 351 231.092C361.957 249.075 377.001 289.153 379.947 300.856C382.225 309.906 385 311.371 385 353.856C385 412.356 380.576 410.522 359.675 475.225C351.331 501.056 343.447 526.993 342.154 532.864C340.426 540.708 339.62 553.158 339.114 579.829C338.276 623.988 348.71 646.702 358 667.5C358 667.5 364.763 681.75 366.5 699.5C367.531 702.864 361.737 696.406 347.095 683.857Z" fill="#FF9900" stroke="#111111" stroke-width="1.5" stroke-linecap="round" stroke-linejoin="round"/>
<path d="M524.724 808.214C481.998 805.896 468.429 800.598 445.253 777.186C414.25 745.865 402.575 723.983 397 686.747C394.504 670.073 393.665 627.115 395.5 609.953C402.241 546.931 422.186 503.607 477.542 431.75C517.555 379.81 528.865 353.707 524.667 322.981C523.058 311.201 520.413 302.154 511.301 277.26C503.328 255.479 501.923 246.511 500.59 208.917C499.925 190.146 498.669 171.587 497.799 167.676C496.93 163.765 492.428 152.886 487.795 143.5C475.446 118.48 471.638 103.128 471.571 78.0832C471.52 59.1342 471.708 57.785 475.464 50.1202C480.112 40.6335 484.406 38.3025 492.253 41.0064C508.804 46.7096 540.821 78.6686 553.992 102.633C556.888 107.903 559.41 112.422 559.597 112.677C559.784 112.932 564.624 110.581 570.353 107.453C589.172 97.1756 592.827 96.5706 636.103 96.5706C678.809 96.5706 684.123 97.4517 705.018 107.999C741.439 126.382 780.949 174.447 790.698 212.228C793.45 222.896 793.852 246.251 791.438 255.237C789 269 779.745 283.775 764.5 297C744.837 314.057 734.002 318.802 696 323C667.153 326.186 661.853 328.5 661.853 334.101C663.754 339.067 687.396 349.8 709.173 355.584C740.813 363.987 814.047 360.647 871.376 348.186C900.958 341.756 904.762 341.783 910.61 348.459L915.124 353.611L910.403 358.541C897.325 372.196 852.951 396.425 809.91 413.411C759.673 433.237 721 446.5 670 453.5C651.788 456.604 634.635 460.396 632 461.5C623.099 465.228 623.977 476.028 633.663 480.635C641.584 484.403 660.121 484.837 682.925 481.79C693.85 480.33 707.928 478.505 713 478.5C721.159 478.493 725.638 478.107 726 480.635C726.351 483.092 727.25 480.067 716 483.5C694.751 490.969 670.425 503.16 660.212 510.299C642.611 522.601 613.722 549.684 600.712 565.798L594.701 570.941L583.478 566.293C573.243 562.054 570.935 561.643 557.252 561.623C543.031 561.602 542.704 562.755 536.212 566.798C527.891 571.981 526.134 573.834 529.212 575.798C530.382 576.546 536.928 578.862 544.712 581.298C561.718 586.622 571.945 591.298 583.712 600.798C605.226 616.652 622.992 636.598 627.712 651.798C636.419 679.84 631.976 711.572 617.712 735.798C610.627 747.832 592.212 765.798 573.756 777.172C565.217 782.972 560.517 787.321 560.212 788.298C559.282 791.276 567.977 787.585 575.212 783.798C582.712 779.873 615.453 780.187 639.712 781.298C662.079 782.323 659.422 785.298 665.212 789.298C672.197 794.125 677.362 803.143 675.212 805.298C674.334 806.178 666.141 807.883 658.503 808.5C641.167 809.901 552.324 809.71 524.724 808.214ZM664.511 227.462C677.486 219.84 683.028 203.657 676.743 191.745C671.389 181.596 664.053 175.232 655.908 173.671C647.759 172.108 632.585 181.631 628.816 190.674C623.259 204.005 629.263 222.847 641.089 229.187C648.86 233.354 655.286 232.881 664.511 227.462Z" fill="#FF9900" stroke="#111111" stroke-width="1.6" stroke-linecap="round" stroke-linejoin="round"/>
<path d="M574.813 79.6059C573.752 78.2985 573.742 74.3199 574.786 69.1083C576.226 61.9144 579.661 49.4339 581.448 44.9024C586.613 31.7993 592.696 30.1869 604.184 38.8763C605.921 40.1906 613.359 47.4781 620.712 55.0707L634.081 68.8755L622.533 69.1729C606.226 69.5934 599.173 71.1114 586.77 76.8713C579.433 80.2785 575.997 81.0646 574.813 79.6059Z" fill="#FF9900"/>
<defs>
<filter id="filter0_d_107_95" x="763.5" y="599.479" width="228.566" height="223.142" filterUnits="userSpaceOnUse" color-interpolation-filters="sRGB">
<feFlood flood-opacity="0" result="BackgroundImageFix"/>
<feColorMatrix in="SourceAlpha" type="matrix" values="0 0 0 0 0 0 0 0 0 0 0 0 0 0 0 0 0 0 127 0" result="hardAlpha"/>
<feOffset dy="4"/>
<feGaussianBlur stdDeviation="2"/>
<feComposite in2="hardAlpha" operator="out"/>
<feColorMatrix type="matrix" values="0 0 0 0 0 0 0 0 0 0 0 0 0 0 0 0 0 0 0.25 0"/>
<feBlend mode="normal" in2="BackgroundImageFix" result="effect1_dropShadow_107_95"/>
<feBlend mode="normal" in="SourceGraphic" in2="effect1_dropShadow_107_95" result="shape"/>
</filter>
</defs>
</svg>
